<svg xmlns="http://www.w3.org/2000/svg" viewBox="0 0 96 28" width="96" height="28">
  <g fill="none" fill-rule="evenodd">
    <path d="M87.865 7.567c.428-.97 1.365-1.34 2.38-1.34h.78c.485 0 .93.1 1.345.3l-.12.65c-.4-.15-.82-.2-1.235-.2H89.63c-1.14 0-1.96.54-2.22 1.53l-2.73 11.3c-.31 1.27.18 2.03 1.45 2.03h.92c.5 0 1.02-.07 1.51-.21l-.13.71c-.53.12-1.08.19-1.64.19h-1.02c-1.77 0-2.84-.9-2.56-2.74l2.54-11.5zm-15.44-.02c.32-1.12 1.15-1.48 2.25-1.48h.64c.43 0 .84.07 1.22.24l-.09.53c-.33-.15-.68-.23-1.04-.23h-.64c-1.19 0-2.06.52-2.32 1.53l-1.02 4.06c-.14.57-.11.9.3 1.27.44.41 1.12.38 1.65.34.38-.03.76-.08 1.14-.14l-.1.52c-.42.1-.85.17-1.28.19-.8.05-1.6-.05-2.35-.29-.57-.18-.86-.49-.73-1.05l.95-3.86c.31-1.13 1.15-1.49 2.26-1.49h.71c.41 0 .81.07 1.18.22l-.09.49c-.35-.15-.72-.23-1.1-.23h-.68c-1.19 0-2.07.52-2.33 1.53l-.97 4.06c-.15.62-.11.97.33 1.37.41.37 1.05.34 1.55.3.38-.03.76-.08 1.14-.14l-.1.52c-.41.1-.84.17-1.27.19-1.16.07-2.31-.21-3.27-.8-.73-.45-.88-.94-.68-1.58l1.04-4.36zM54.8 6.097c-1.58 0-2.72.73-3.2 2.33l-2.87 12.03c-.14.58.07.8.57.8h1.22c.4 0 .79-.06 1.16-.19l-.13.68c-.52.13-1.07.2-1.62.2h-1.23c-1.23 0-1.73-.6-1.54-1.59l.5-2.1c.43-1.83 1.73-2.87 3.64-2.87h.56c.47 0 .92.11 1.32.3l-.13.72c-.47-.21-.99-.32-1.52-.32h-.71c-1.66 0-2.81.8-3.18 2.44l-2.3 9.64c-.31 1.28.17 2.03 1.45 2.03h1.08c.49 0 .98-.07 1.45-.19l-.13.7c-.53.12-1.08.19-1.64.19h-1.26c-1.76 0-2.84-.9-2.56-2.74l2.57-10.77c.3-1.26 1.24-1.7 2.58-1.7h.6c.45 0 .88.08 1.28.24l-.1.51c-.37-.16-.77-.24-1.19-.24h-.67c-1.56 0-2.67.7-3.15 2.22l-2.25 9.47c-.31 1.28.17 2.03 1.45 2.03h1.18c.46 0 .92-.07 1.36-.19l-.13.69c-.52.12-1.07.19-1.62.19h-1.23c-1.77 0-2.84-.9-2.56-2.74l2.55-10.77c.31-1.27 1.24-1.7 2.59-1.7h3.78c.45 0 .89.07 1.32.22l-.11.55c-.43-.16-.9-.25-1.37-.25h-.74zm16.9-.02c.38-.89 1.3-1.32 2.37-1.32 1.08 0 1.98.43 2.36 1.32.24.58.27 1.07.12 1.5-.16.46-.52.76-1 .88-.47.12-.98.08-1.48-.12-.43-.17-.88-.27-1.34-.27-.36 0-.72.07-1.04.2-.35.15-.64.37-.85.65-.27.36-.33.74-.31 1.14.02.38.16.74.4 1.03.25.3.59.52.98.63.43.12.88.08 1.31-.09.5-.2 1.03-.33 1.58-.37.4-.03.8-.01 1.2.06.37.07.72.21 1.03.42.25.18.46.42.6.7.14.3.2.62.17.95-.03.42-.18.82-.43 1.15-.25.32-.58.56-.97.7-.45.17-.93.22-1.4.17-.52-.06-1.02-.2-1.49-.42-.39-.19-.77-.39-1.16-.59-.38-.2-.77-.38-1.17-.55-.35-.14-.72-.24-1.1-.29-.44-.06-.88 0-1.3.17-.41.18-.77.46-1.03.83-.26.35-.44.77-.52 1.21-.08.48-.05.97.1 1.43.17.52.47.99.88 1.35.42.37.92.65 1.48.8.65.18 1.33.19 1.99.03.56-.14 1.09-.36 1.59-.65.5-.29.96-.63 1.39-1.01.43-.39.82-.81 1.17-1.27l-.36.23c-.51.3-1.07.52-1.66.64-.61.13-1.24.13-1.85 0-.62-.14-1.2-.41-1.69-.8-.48-.39-.85-.88-1.09-1.44-.22-.51-.3-1.06-.23-1.6.07-.51.26-.99.56-1.41.31-.44.72-.8 1.2-1.06.52-.28 1.1-.45 1.7-.5.66-.06 1.33.05 1.92.32.59.26 1.1.65 1.5 1.14.42.52.71 1.13.85 1.78.15.71.12 1.44-.07 2.14-.24.83-.71 1.59-1.36 2.19-.63.59-1.41 1.03-2.27 1.28-.97.28-1.99.33-2.99.15-1.02-.19-1.97-.61-2.78-1.23-.77-.59-1.38-1.34-1.77-2.19-.38-.83-.55-1.73-.48-2.63.06-.84.31-1.65.75-2.38zm14.4-4.47c.85 0 1.55.3 2.09.89.43.48.68 1.08.7 1.72.02.56-.14 1.11-.47 1.57-.34.47-.8.8-1.33.95-.5.14-1.03.12-1.52-.05-.49-.17-.93-.47-1.27-.86-.33-.39-.54-.85-.62-1.35-.08-.54-.02-1.09.18-1.59.19-.48.51-.9.92-1.21.43-.33.95-.53 1.5-.58h.79c.53 0 1.05.14 1.51.4l-.12.68c-.42-.2-.88-.3-1.36-.3h-.79c-.42.03-.83.16-1.19.38-.35.21-.65.49-.88.83-.23.33-.38.71-.45 1.11-.07.44-.03.88.1 1.3.14.45.38.85.7 1.17.34.34.76.58 1.22.71.51.15 1.06.13 1.56-.05.53-.2.99-.55 1.3-1.01.31-.47.48-1.02.5-1.59.02-.65-.17-1.28-.53-1.8-.37-.53-.91-.92-1.54-1.1-.6-.18-1.24-.2-1.85-.07-.58.12-1.13.37-1.61.72-.5.37-.92.83-1.26 1.36-.34.53-.58 1.12-.71 1.74-.12.58-.12 1.18 0 1.76.13.63.41 1.22.81 1.72.42.53.97.96 1.61 1.24.71.31 1.48.46 2.26.42.8-.04 1.58-.23 2.3-.57.73-.35 1.39-.82 1.95-1.4.56-.59 1-1.27 1.3-2.02.3-.76.43-1.58.37-2.4-.06-.8-.3-1.57-.69-2.27-.4-.72-.96-1.35-1.65-1.83-.7-.49-1.5-.83-2.37-.99-.89-.17-1.8-.15-2.68.06-.87.2-1.69.58-2.41 1.11-.72.54-1.33 1.2-1.79 1.96-.47.77-.8 1.63-.96 2.53-.16.9-.12 1.82.11 2.71.23.9.66 1.74 1.25 2.46.59.72 1.33 1.32 2.17 1.76.86.45 1.81.73 2.8.83.96.09 1.94-.02 2.86-.33.93-.32 1.79-.82 2.52-1.47.74-.66 1.33-1.46 1.74-2.35l-.62.32c-.58.27-1.2.46-1.85.55-.66.1-1.33.08-1.98-.06-.68-.14-1.32-.42-1.88-.82-.58-.41-1.06-.95-1.4-1.57-.35-.63-.55-1.33-.6-2.05-.05-.7.08-1.4.36-2.03.29-.65.74-1.22 1.31-1.66.58-.45 1.26-.77 2-1.11z" fill="#009cde"/>
    <path d="M40.5 7.257c.37-.82 1.19-1.21 2.18-1.21.6 0 1.19.16 1.72.47l.1-.52c-.6-.28-1.26-.42-1.93-.42-1.77 0-3.12 1.02-3.51 2.62l-2.27 9.47c-.14.58.07.8.57.8h1.22c.4 0 .79-.06 1.16-.19l-.13.68c-.52.13-1.07.2-1.62.2h-1.23c-1.23 0-1.73-.6-1.54-1.59l2.27-9.47c.3-1.26 1.24-1.7 2.58-1.7h.71c.46 0 .91.08 1.33.25l-.1.53c-.4-.17-.83-.25-1.26-.25h-.79z" fill="#003087"/>
    <path d="M38.1 6.197c-.3 0-.6.04-.89.13l.07-.35c.33-.07.67-.11 1.02-.11.72 0 1.41.16 2.02.46.55.27.95.72 1.11 1.29l1.06 4.44c.03.14.05.29.05.43 0 .5-.2.98-.55 1.32-.35.34-.82.55-1.33.57-.48.02-.95-.12-1.34-.4-.38-.28-.65-.68-.77-1.14l-.2-.83c-.24-.98-1-1.66-1.99-1.79-.4-.05-.81 0-1.2.14l.07-.35c.4-.11.81-.15 1.23-.14.5.01.98.18 1.36.47.38.3.65.7.77 1.16l.17.71c.15.62.01 1.27-.36 1.77-.38.51-.94.87-1.58 1.01-.59.13-1.2.08-1.76-.15-.56-.22-1.04-.61-1.37-1.1-.33-.5-.5-1.08-.5-1.68 0-.52.14-1.03.4-1.48.26-.46.63-.86 1.07-1.17.45-.31.97-.54 1.52-.66.62-.14 1.26-.16 1.89-.06z" fill="#009cde"/>
    <path d="M35.2 7.237c-.6 0-1.18.17-1.7.48-.43.27-.78.64-1.01 1.09-.23.44-.34.93-.32 1.43.02.44.14.87.36 1.25.23.39.55.72.94.97.4.25.86.41 1.33.47.51.07 1.03.03 1.52-.1.49-.13.94-.36 1.33-.67.39-.31.7-.7.92-1.14.22-.45.33-.94.33-1.43 0-.48-.11-.95-.33-1.38-.22-.44-.54-.82-.94-1.12-.4-.31-.87-.53-1.37-.65-.55-.13-1.12-.14-1.68-.03-.54.1-1.05.33-1.49.66-.44.34-.8.77-1.06 1.26-.26.5-.4 1.05-.4 1.62 0 .66.18 1.3.52 1.86.35.57.84 1.05 1.44 1.39.61.35 1.3.55 2.01.57.7.03 1.4-.12 2.04-.42.65-.31 1.21-.77 1.65-1.33.44-.57.69-1.24.74-1.93.05-.68-.13-1.36-.51-1.96-.38-.61-.93-1.11-1.59-1.44-.66-.34-1.4-.5-2.15-.46-.74.04-1.46.24-2.11.6-.65.36-1.2.86-1.63 1.47-.42.61-.69 1.32-.77 2.06l.13-.04c-.12-.73.02-1.49.41-2.13.39-.64.97-1.14 1.67-1.43.7-.29 1.48-.38 2.25-.25.78.13 1.5.47 2.1.99.59.52 1.02 1.2 1.25 1.97l.13-.04c-.09-.73-.36-1.42-.78-2.01-.44-.62-1.04-1.12-1.74-1.46-.72-.35-1.51-.52-2.32-.49z" fill="#003087"/>
  </g>
</svg>