<svg xmlns="http://www.w3.org/2000/svg" viewBox="0 0 96 28" width="96" height="28">
  <g fill="none" fill-rule="evenodd">
    <!-- Tebex Background -->
    <rect width="96" height="28" rx="4" fill="#1a1a2e"/>
    
    <!-- T Icon -->
    <path d="M16 8h10v2.5H19v7.5h-3V8z" fill="#8b5cf6"/>
    
    <!-- E Icon -->
    <path d="M32 8h8v2.5h-5v2h4v2.5h-4v2.5h5V18h-8V8z" fill="#8b5cf6"/>
    
    <!-- B Icon -->
    <path d="M44 8h7c2.5 0 4 1.5 4 3.5 0 1.3-.7 2.4-2 3v.1c1.5.4 2.5 1.5 2.5 3.1 0 2.2-1.8 3.8-4.5 3.8h-7V8zm3 5.5h3.5c1 0 1.8-.7 1.8-1.8 0-1-.7-1.7-1.8-1.7H47v3.5zm0 5.5h4c1.2 0 2-.8 2-2 0-1.2-.8-2-2-2h-4v4z" fill="#8b5cf6"/>
    
    <!-- E Icon (second) -->
    <path d="M58 8h3v10h-3V8z" fill="#8b5cf6"/>
    
    <!-- X Icon -->
    <path d="M67 8l2 3.2 2.5-3.2H74l-4.3 5.2L74 18h-2.5l-2.5-3.5-2.5 3.5H64l4.3-4.8L64 8h3z" fill="#8b5cf6"/>
    
    <!-- Crown/Star decoration -->
    <path d="M83 11l1.2 2.4 2.6.4-1.9 1.8.5 2.6L83 16.5l-2.4 1.7.5-2.6-1.9-1.8 2.6-.4L83 11z" fill="#a78bfa" fill-opacity="0.6"/>
  </g>
</svg>